<?xml version="1.0" encoding="utf-8"?>
<!-- Generator: Adobe Illustrator 16.0.0, SVG Export Plug-In . SVG Version: 6.00 Build 0)  -->
<!DOCTYPE svg PUBLIC "-//W3C//DTD SVG 1.1//EN" "http://www.w3.org/Graphics/SVG/1.1/DTD/svg11.dtd">
<svg version="1.1" id="Layer_1" xmlns="http://www.w3.org/2000/svg" xmlns:xlink="http://www.w3.org/1999/xlink" x="0px" y="0px"
	 width="841.89px" height="595.28px" viewBox="0 0 841.89 595.28" enable-background="new 0 0 841.89 595.28" xml:space="preserve">
<g>
	<path fill="#A7A9AC" d="M1894.5,493.318c-0.276,0-0.5,0.224-0.5,0.5v0.983c0,0.276,0.224,0.5,0.5,0.5s0.5-0.224,0.5-0.5v-0.983
		C1895,493.542,1894.776,493.318,1894.5,493.318z"/>
	<path fill="#A7A9AC" d="M1894.5,488.399c-0.276,0-0.5,0.224-0.5,0.5v0.984c0,0.276,0.224,0.5,0.5,0.5s0.5-0.224,0.5-0.5v-0.984
		C1895,488.623,1894.776,488.399,1894.5,488.399z"/>
	<path fill="#A7A9AC" d="M1894.5,498.236c-0.276,0-0.5,0.224-0.5,0.5v0.983c0,0.276,0.224,0.5,0.5,0.5s0.5-0.224,0.5-0.5v-0.983
		C1895,498.46,1894.776,498.236,1894.5,498.236z"/>
	<path fill="#A7A9AC" d="M1894.5,503.154c-0.276,0-0.5,0.224-0.5,0.5v0.983c0,0.276,0.224,0.5,0.5,0.5s0.5-0.224,0.5-0.5v-0.983
		C1895,503.378,1894.776,503.154,1894.5,503.154z"/>
	<path fill="#A7A9AC" d="M1894.5,483.481c-0.276,0-0.5,0.224-0.5,0.5v0.983c0,0.276,0.224,0.5,0.5,0.5s0.5-0.224,0.5-0.5v-0.983
		C1895,483.705,1894.776,483.481,1894.5,483.481z"/>
	<path fill="#A7A9AC" d="M1894.5,468.728c-0.276,0-0.5,0.224-0.5,0.5v0.983c0,0.276,0.224,0.5,0.5,0.5s0.5-0.224,0.5-0.5v-0.983
		C1895,468.951,1894.776,468.728,1894.5,468.728z"/>
	<path fill="#A7A9AC" d="M1894.5,478.563c-0.276,0-0.5,0.224-0.5,0.5v0.983c0,0.276,0.224,0.5,0.5,0.5s0.5-0.224,0.5-0.5v-0.983
		C1895,478.787,1894.776,478.563,1894.5,478.563z"/>
	<path fill="#A7A9AC" d="M1894.5,473.646c-0.276,0-0.5,0.224-0.5,0.5v0.983c0,0.276,0.224,0.5,0.5,0.5s0.5-0.224,0.5-0.5v-0.983
		C1895,473.869,1894.776,473.646,1894.5,473.646z"/>
	<path fill="#A7A9AC" d="M1894.5,508.072c-0.276,0-0.5,0.224-0.5,0.5v0.983c0,0.276,0.224,0.5,0.5,0.5s0.5-0.224,0.5-0.5v-0.983
		C1895,508.296,1894.776,508.072,1894.5,508.072z"/>
	<path fill="#A7A9AC" d="M1894.5,517.908c-0.276,0-0.5,0.224-0.5,0.5v0.983c0,0.276,0.224,0.5,0.5,0.5s0.5-0.224,0.5-0.5v-0.983
		C1895,518.132,1894.776,517.908,1894.5,517.908z"/>
	<path fill="#A7A9AC" d="M1894.5,512.99c-0.276,0-0.5,0.224-0.5,0.5v0.983c0,0.276,0.224,0.5,0.5,0.5s0.5-0.224,0.5-0.5v-0.983
		C1895,513.214,1894.776,512.99,1894.5,512.99z"/>
	<path fill="#A7A9AC" d="M1895,464.293h-1v1c0,0.276,0.224,0.5,0.5,0.5s0.5-0.224,0.5-0.5c0.276,0,0.5-0.224,0.5-0.5
		S1895.276,464.293,1895,464.293z"/>
	<path fill="#A7A9AC" d="M1910.069,464.293h-1.005c-0.276,0-0.5,0.224-0.5,0.5s0.224,0.5,0.5,0.5h1.005c0.276,0,0.5-0.224,0.5-0.5
		S1910.346,464.293,1910.069,464.293z"/>
	<path fill="#A7A9AC" d="M1905.046,464.293h-1.005c-0.276,0-0.5,0.224-0.5,0.5s0.224,0.5,0.5,0.5h1.005c0.276,0,0.5-0.224,0.5-0.5
		S1905.322,464.293,1905.046,464.293z"/>
	<path fill="#A7A9AC" d="M1900.023,464.293h-1.005c-0.276,0-0.5,0.224-0.5,0.5s0.224,0.5,0.5,0.5h1.005c0.276,0,0.5-0.224,0.5-0.5
		S1900.3,464.293,1900.023,464.293z"/>
	<path fill="#A7A9AC" d="M1925.138,464.293h-1.005c-0.276,0-0.5,0.224-0.5,0.5s0.224,0.5,0.5,0.5h1.005c0.276,0,0.5-0.224,0.5-0.5
		S1925.414,464.293,1925.138,464.293z"/>
	<path fill="#A7A9AC" d="M1985.413,464.293h-1.005c-0.276,0-0.5,0.224-0.5,0.5s0.224,0.5,0.5,0.5h1.005c0.276,0,0.5-0.224,0.5-0.5
		S1985.689,464.293,1985.413,464.293z"/>
	<path fill="#A7A9AC" d="M1975.367,464.293h-1.005c-0.276,0-0.5,0.224-0.5,0.5s0.224,0.5,0.5,0.5h1.005c0.276,0,0.5-0.224,0.5-0.5
		S1975.644,464.293,1975.367,464.293z"/>
	<path fill="#A7A9AC" d="M1980.39,464.293h-1.004c-0.276,0-0.5,0.224-0.5,0.5s0.224,0.5,0.5,0.5h1.004c0.276,0,0.5-0.224,0.5-0.5
		S1980.666,464.293,1980.39,464.293z"/>
	<path fill="#A7A9AC" d="M1970.345,464.293h-1.005c-0.276,0-0.5,0.224-0.5,0.5s0.224,0.5,0.5,0.5h1.005c0.276,0,0.5-0.224,0.5-0.5
		S1970.621,464.293,1970.345,464.293z"/>
	<path fill="#A7A9AC" d="M1995.459,464.293h-1.005c-0.276,0-0.5,0.224-0.5,0.5s0.224,0.5,0.5,0.5h1.005c0.276,0,0.5-0.224,0.5-0.5
		S1995.735,464.293,1995.459,464.293z"/>
	<path fill="#A7A9AC" d="M2000.481,464.293h-1.004c-0.276,0-0.5,0.224-0.5,0.5s0.224,0.5,0.5,0.5h1.004c0.276,0,0.5-0.224,0.5-0.5
		S2000.758,464.293,2000.481,464.293z"/>
	<path fill="#A7A9AC" d="M1990.436,464.293h-1.004c-0.276,0-0.5,0.224-0.5,0.5s0.224,0.5,0.5,0.5h1.004c0.276,0,0.5-0.224,0.5-0.5
		S1990.712,464.293,1990.436,464.293z"/>
	<path fill="#A7A9AC" d="M1965.321,464.293h-1.005c-0.276,0-0.5,0.224-0.5,0.5s0.224,0.5,0.5,0.5h1.005c0.276,0,0.5-0.224,0.5-0.5
		S1965.598,464.293,1965.321,464.293z"/>
	<path fill="#A7A9AC" d="M1955.275,464.293h-1.005c-0.276,0-0.5,0.224-0.5,0.5s0.224,0.5,0.5,0.5h1.005c0.276,0,0.5-0.224,0.5-0.5
		S1955.552,464.293,1955.275,464.293z"/>
	<path fill="#A7A9AC" d="M1935.184,464.293h-1.005c-0.276,0-0.5,0.224-0.5,0.5s0.224,0.5,0.5,0.5h1.005c0.276,0,0.5-0.224,0.5-0.5
		S1935.46,464.293,1935.184,464.293z"/>
	<path fill="#A7A9AC" d="M1930.161,464.293h-1.005c-0.276,0-0.5,0.224-0.5,0.5s0.224,0.5,0.5,0.5h1.005c0.276,0,0.5-0.224,0.5-0.5
		S1930.438,464.293,1930.161,464.293z"/>
	<path fill="#A7A9AC" d="M1920.115,464.293h-1.005c-0.276,0-0.5,0.224-0.5,0.5s0.224,0.5,0.5,0.5h1.005c0.276,0,0.5-0.224,0.5-0.5
		S1920.392,464.293,1920.115,464.293z"/>
	<path fill="#A7A9AC" d="M1940.207,464.293h-1.005c-0.276,0-0.5,0.224-0.5,0.5s0.224,0.5,0.5,0.5h1.005c0.276,0,0.5-0.224,0.5-0.5
		S1940.483,464.293,1940.207,464.293z"/>
	<path fill="#A7A9AC" d="M1915.092,464.293h-1.005c-0.276,0-0.5,0.224-0.5,0.5s0.224,0.5,0.5,0.5h1.005c0.276,0,0.5-0.224,0.5-0.5
		S1915.368,464.293,1915.092,464.293z"/>
	<path fill="#A7A9AC" d="M1960.299,464.293h-1.005c-0.276,0-0.5,0.224-0.5,0.5s0.224,0.5,0.5,0.5h1.005c0.276,0,0.5-0.224,0.5-0.5
		S1960.575,464.293,1960.299,464.293z"/>
	<path fill="#A7A9AC" d="M1950.253,464.293h-1.005c-0.276,0-0.5,0.224-0.5,0.5s0.224,0.5,0.5,0.5h1.005c0.276,0,0.5-0.224,0.5-0.5
		S1950.529,464.293,1950.253,464.293z"/>
	<path fill="#A7A9AC" d="M1945.229,464.293h-1.005c-0.276,0-0.5,0.224-0.5,0.5s0.224,0.5,0.5,0.5h1.005c0.276,0,0.5-0.224,0.5-0.5
		S1945.506,464.293,1945.229,464.293z"/>
	<path fill="#A7A9AC" d="M2005,464.293h-0.5c-0.276,0-0.5,0.224-0.5,0.5s0.224,0.5,0.5,0.5h0.5c0.276,0,0.5-0.224,0.5-0.5
		S2005.276,464.293,2005,464.293z"/>
	<path fill="#A7A9AC" d="M2014.062,464.439l-6.458-6.458c-0.195-0.195-0.512-0.195-0.707,0s-0.195,0.512,0,0.707l6.104,6.104
		l-6.104,6.104c-0.195,0.195-0.195,0.512,0,0.707c0.098,0.098,0.226,0.146,0.354,0.146s0.256-0.049,0.354-0.146l6.458-6.458
		C2014.257,464.951,2014.257,464.635,2014.062,464.439z"/>
</g>
</svg>
