<?xml version="1.0" encoding="utf-8"?>
<!-- Generator: Adobe Illustrator 16.0.0, SVG Export Plug-In . SVG Version: 6.00 Build 0)  -->
<!DOCTYPE svg PUBLIC "-//W3C//DTD SVG 1.1//EN" "http://www.w3.org/Graphics/SVG/1.1/DTD/svg11.dtd">
<svg version="1.1" id="Layer_1" xmlns="http://www.w3.org/2000/svg" xmlns:xlink="http://www.w3.org/1999/xlink" x="0px" y="0px"
	 width="841.89px" height="595.28px" viewBox="0 0 841.89 595.28" enable-background="new 0 0 841.89 595.28" xml:space="preserve">
<g>
	<path fill="#A7A9AC" d="M1808.833,313.166h-0.5c-0.276,0-0.5,0.224-0.5,0.5s0.224,0.5,0.5,0.5h0.5c0.276,0,0.5-0.224,0.5-0.5
		S1809.109,313.166,1808.833,313.166z"/>
	<path fill="#A7A9AC" d="M1884.478,313.166h-1.009c-0.276,0-0.5,0.224-0.5,0.5s0.224,0.5,0.5,0.5h1.009c0.276,0,0.5-0.224,0.5-0.5
		S1884.754,313.166,1884.478,313.166z"/>
	<path fill="#A7A9AC" d="M1869.349,313.166h-1.009c-0.276,0-0.5,0.224-0.5,0.5s0.224,0.5,0.5,0.5h1.009c0.276,0,0.5-0.224,0.5-0.5
		S1869.625,313.166,1869.349,313.166z"/>
	<path fill="#A7A9AC" d="M1879.435,313.166h-1.009c-0.276,0-0.5,0.224-0.5,0.5s0.224,0.5,0.5,0.5h1.009c0.276,0,0.5-0.224,0.5-0.5
		S1879.711,313.166,1879.435,313.166z"/>
	<path fill="#A7A9AC" d="M1874.392,313.166h-1.009c-0.276,0-0.5,0.224-0.5,0.5s0.224,0.5,0.5,0.5h1.009c0.276,0,0.5-0.224,0.5-0.5
		S1874.668,313.166,1874.392,313.166z"/>
	<path fill="#A7A9AC" d="M1904.649,313.166h-1.009c-0.276,0-0.5,0.224-0.5,0.5s0.224,0.5,0.5,0.5h1.009c0.276,0,0.5-0.224,0.5-0.5
		S1904.926,313.166,1904.649,313.166z"/>
	<path fill="#A7A9AC" d="M1899.606,313.166h-1.009c-0.276,0-0.5,0.224-0.5,0.5s0.224,0.5,0.5,0.5h1.009c0.276,0,0.5-0.224,0.5-0.5
		S1899.883,313.166,1899.606,313.166z"/>
	<path fill="#A7A9AC" d="M1864.306,313.166h-1.009c-0.276,0-0.5,0.224-0.5,0.5s0.224,0.5,0.5,0.5h1.009c0.276,0,0.5-0.224,0.5-0.5
		S1864.582,313.166,1864.306,313.166z"/>
	<path fill="#A7A9AC" d="M1889.521,313.166h-1.009c-0.276,0-0.5,0.224-0.5,0.5s0.224,0.5,0.5,0.5h1.009c0.276,0,0.5-0.224,0.5-0.5
		S1889.797,313.166,1889.521,313.166z"/>
	<path fill="#A7A9AC" d="M1894.563,313.166h-1.009c-0.276,0-0.5,0.224-0.5,0.5s0.224,0.5,0.5,0.5h1.009c0.276,0,0.5-0.224,0.5-0.5
		S1894.84,313.166,1894.563,313.166z"/>
	<path fill="#A7A9AC" d="M1909.692,313.166h-1.009c-0.276,0-0.5,0.224-0.5,0.5s0.224,0.5,0.5,0.5h1.009c0.276,0,0.5-0.224,0.5-0.5
		S1909.969,313.166,1909.692,313.166z"/>
	<path fill="#A7A9AC" d="M1823.962,313.166h-1.009c-0.276,0-0.5,0.224-0.5,0.5s0.224,0.5,0.5,0.5h1.009c0.276,0,0.5-0.224,0.5-0.5
		S1824.238,313.166,1823.962,313.166z"/>
	<path fill="#A7A9AC" d="M1829.005,313.166h-1.009c-0.276,0-0.5,0.224-0.5,0.5s0.224,0.5,0.5,0.5h1.009c0.276,0,0.5-0.224,0.5-0.5
		S1829.281,313.166,1829.005,313.166z"/>
	<path fill="#A7A9AC" d="M1818.919,313.166h-1.009c-0.276,0-0.5,0.224-0.5,0.5s0.224,0.5,0.5,0.5h1.009c0.276,0,0.5-0.224,0.5-0.5
		S1819.195,313.166,1818.919,313.166z"/>
	<path fill="#A7A9AC" d="M1813.876,313.166h-1.009c-0.276,0-0.5,0.224-0.5,0.5s0.224,0.5,0.5,0.5h1.009c0.276,0,0.5-0.224,0.5-0.5
		S1814.152,313.166,1813.876,313.166z"/>
	<path fill="#A7A9AC" d="M1854.22,313.166h-1.009c-0.276,0-0.5,0.224-0.5,0.5s0.224,0.5,0.5,0.5h1.009c0.276,0,0.5-0.224,0.5-0.5
		S1854.496,313.166,1854.22,313.166z"/>
	<path fill="#A7A9AC" d="M1849.177,313.166h-1.009c-0.276,0-0.5,0.224-0.5,0.5s0.224,0.5,0.5,0.5h1.009c0.276,0,0.5-0.224,0.5-0.5
		S1849.453,313.166,1849.177,313.166z"/>
	<path fill="#A7A9AC" d="M1834.048,313.166h-1.009c-0.276,0-0.5,0.224-0.5,0.5s0.224,0.5,0.5,0.5h1.009c0.276,0,0.5-0.224,0.5-0.5
		S1834.324,313.166,1834.048,313.166z"/>
	<path fill="#A7A9AC" d="M1859.263,313.166h-1.009c-0.276,0-0.5,0.224-0.5,0.5s0.224,0.5,0.5,0.5h1.009c0.276,0,0.5-0.224,0.5-0.5
		S1859.539,313.166,1859.263,313.166z"/>
	<path fill="#A7A9AC" d="M1839.091,313.166h-1.009c-0.276,0-0.5,0.224-0.5,0.5s0.224,0.5,0.5,0.5h1.009c0.276,0,0.5-0.224,0.5-0.5
		S1839.367,313.166,1839.091,313.166z"/>
	<path fill="#A7A9AC" d="M1844.134,313.166h-1.009c-0.276,0-0.5,0.224-0.5,0.5s0.224,0.5,0.5,0.5h1.009c0.276,0,0.5-0.224,0.5-0.5
		S1844.41,313.166,1844.134,313.166z"/>
	<path fill="#A7A9AC" d="M1975.251,313.166h-1.009c-0.276,0-0.5,0.224-0.5,0.5s0.224,0.5,0.5,0.5h1.009c0.276,0,0.5-0.224,0.5-0.5
		S1975.527,313.166,1975.251,313.166z"/>
	<path fill="#A7A9AC" d="M1970.208,313.166h-1.009c-0.276,0-0.5,0.224-0.5,0.5s0.224,0.5,0.5,0.5h1.009c0.276,0,0.5-0.224,0.5-0.5
		S1970.484,313.166,1970.208,313.166z"/>
	<path fill="#A7A9AC" d="M1980.294,313.166h-1.009c-0.276,0-0.5,0.224-0.5,0.5s0.224,0.5,0.5,0.5h1.009c0.276,0,0.5-0.224,0.5-0.5
		S1980.57,313.166,1980.294,313.166z"/>
	<path fill="#A7A9AC" d="M1960.122,313.166h-1.009c-0.276,0-0.5,0.224-0.5,0.5s0.224,0.5,0.5,0.5h1.009c0.276,0,0.5-0.224,0.5-0.5
		S1960.398,313.166,1960.122,313.166z"/>
	<path fill="#A7A9AC" d="M1965.165,313.166h-1.009c-0.276,0-0.5,0.224-0.5,0.5s0.224,0.5,0.5,0.5h1.009c0.276,0,0.5-0.224,0.5-0.5
		S1965.441,313.166,1965.165,313.166z"/>
	<path fill="#A7A9AC" d="M1985.337,313.166h-1.009c-0.276,0-0.5,0.224-0.5,0.5s0.224,0.5,0.5,0.5h1.009c0.276,0,0.5-0.224,0.5-0.5
		S1985.613,313.166,1985.337,313.166z"/>
	<path fill="#A7A9AC" d="M1995.423,313.166h-1.009c-0.276,0-0.5,0.224-0.5,0.5s0.224,0.5,0.5,0.5h1.009c0.276,0,0.5-0.224,0.5-0.5
		S1995.699,313.166,1995.423,313.166z"/>
	<path fill="#A7A9AC" d="M2000.466,313.166h-1.009c-0.276,0-0.5,0.224-0.5,0.5s0.224,0.5,0.5,0.5h1.009c0.276,0,0.5-0.224,0.5-0.5
		S2000.742,313.166,2000.466,313.166z"/>
	<path fill="#A7A9AC" d="M1990.38,313.166h-1.009c-0.276,0-0.5,0.224-0.5,0.5s0.224,0.5,0.5,0.5h1.009c0.276,0,0.5-0.224,0.5-0.5
		S1990.656,313.166,1990.38,313.166z"/>
	<path fill="#A7A9AC" d="M1934.907,313.166h-1.009c-0.276,0-0.5,0.224-0.5,0.5s0.224,0.5,0.5,0.5h1.009c0.276,0,0.5-0.224,0.5-0.5
		S1935.184,313.166,1934.907,313.166z"/>
	<path fill="#A7A9AC" d="M1929.864,313.166h-1.009c-0.276,0-0.5,0.224-0.5,0.5s0.224,0.5,0.5,0.5h1.009c0.276,0,0.5-0.224,0.5-0.5
		S1930.141,313.166,1929.864,313.166z"/>
	<path fill="#A7A9AC" d="M1914.735,313.166h-1.009c-0.276,0-0.5,0.224-0.5,0.5s0.224,0.5,0.5,0.5h1.009c0.276,0,0.5-0.224,0.5-0.5
		S1915.012,313.166,1914.735,313.166z"/>
	<path fill="#A7A9AC" d="M1955.079,313.166h-1.009c-0.276,0-0.5,0.224-0.5,0.5s0.224,0.5,0.5,0.5h1.009c0.276,0,0.5-0.224,0.5-0.5
		S1955.355,313.166,1955.079,313.166z"/>
	<path fill="#A7A9AC" d="M1919.778,313.166h-1.009c-0.276,0-0.5,0.224-0.5,0.5s0.224,0.5,0.5,0.5h1.009c0.276,0,0.5-0.224,0.5-0.5
		S1920.055,313.166,1919.778,313.166z"/>
	<path fill="#A7A9AC" d="M1924.821,313.166h-1.009c-0.276,0-0.5,0.224-0.5,0.5s0.224,0.5,0.5,0.5h1.009c0.276,0,0.5-0.224,0.5-0.5
		S1925.098,313.166,1924.821,313.166z"/>
	<path fill="#A7A9AC" d="M1950.036,313.166h-1.009c-0.276,0-0.5,0.224-0.5,0.5s0.224,0.5,0.5,0.5h1.009c0.276,0,0.5-0.224,0.5-0.5
		S1950.313,313.166,1950.036,313.166z"/>
	<path fill="#A7A9AC" d="M1939.95,313.166h-1.009c-0.276,0-0.5,0.224-0.5,0.5s0.224,0.5,0.5,0.5h1.009c0.276,0,0.5-0.224,0.5-0.5
		S1940.227,313.166,1939.95,313.166z"/>
	<path fill="#A7A9AC" d="M1944.993,313.166h-1.009c-0.276,0-0.5,0.224-0.5,0.5s0.224,0.5,0.5,0.5h1.009c0.276,0,0.5-0.224,0.5-0.5
		S1945.27,313.166,1944.993,313.166z"/>
	<path fill="#A7A9AC" d="M2005,313.166h-0.5c-0.276,0-0.5,0.224-0.5,0.5s0.224,0.5,0.5,0.5h0.5c0.276,0,0.5-0.224,0.5-0.5
		S2005.276,313.166,2005,313.166z"/>
	<path fill="#A7A9AC" d="M2014.062,313.313l-6.458-6.458c-0.195-0.195-0.512-0.195-0.707,0s-0.195,0.512,0,0.707l6.104,6.104
		l-6.104,6.104c-0.195,0.195-0.195,0.512,0,0.707c0.098,0.098,0.226,0.146,0.354,0.146s0.256-0.049,0.354-0.146l6.458-6.458
		C2014.257,313.824,2014.257,313.508,2014.062,313.313z"/>
</g>
</svg>
