<?xml version="1.0" encoding="utf-8"?>
<!-- Generator: Adobe Illustrator 16.0.0, SVG Export Plug-In . SVG Version: 6.00 Build 0)  -->
<!DOCTYPE svg PUBLIC "-//W3C//DTD SVG 1.1//EN" "http://www.w3.org/Graphics/SVG/1.1/DTD/svg11.dtd">
<svg version="1.1" id="Layer_1" xmlns="http://www.w3.org/2000/svg" xmlns:xlink="http://www.w3.org/1999/xlink" x="0px" y="0px"
	 width="1280px" height="720px" viewBox="0 0 1280 720" enable-background="new 0 0 1280 720" xml:space="preserve">
<g>
	<path fill="#FCFCFC" d="M1191.959,147.903c-0.081-0.082-0.176-0.171-0.252-0.254c-3.274-3.245-6.587-6.415-9.995-9.504
		c-0.209-0.213-0.422-0.396-0.631-0.582c-3.351-3.024-6.729-5.97-10.205-8.843c-0.271-0.225-0.557-0.446-0.827-0.686
		c-3.452-2.81-6.942-5.571-10.48-8.223c-0.318-0.237-0.65-0.463-0.984-0.699c-3.53-2.629-7.126-5.199-10.782-7.683
		c-0.354-0.24-0.697-0.449-1.045-0.686c-3.664-2.457-7.391-4.855-11.166-7.157c-0.34-0.208-0.657-0.392-1.001-0.576
		c-3.83-2.312-7.651-4.544-11.589-6.681c-0.317-0.185-0.632-0.318-0.949-0.502c-3.965-2.142-7.973-4.197-12.046-6.155
		c-0.263-0.131-0.551-0.253-0.812-0.38c-4.119-1.966-8.293-3.867-12.519-5.663c-0.212-0.094-0.438-0.173-0.655-0.266
		c-4.278-1.794-8.611-3.523-12.991-5.122c-0.157-0.052-0.343-0.102-0.477-0.171c-4.459-1.623-8.949-3.156-13.514-4.552
		c-0.104-0.051-0.213-0.065-0.288-0.103c-4.622-1.415-9.27-2.746-13.967-3.961c-0.045,0-0.082-0.015-0.133-0.027
		c-4.751-1.21-9.558-2.333-14.388-3.323h-0.055c-4.855-1.002-9.771-1.875-14.729-2.644c-0.029,0-0.041,0-0.055,0
		c-4.965-0.752-9.925-1.397-14.943-1.9c-0.208-0.025-0.422-0.025-0.627-0.05c-4.836-0.465-9.69-0.862-14.574-1.098
		c-1.717-0.089-3.474-0.089-5.216-0.145c-3.34-0.109-6.697-0.266-10.075-0.266c-0.039,0-0.068,0-0.103,0c-0.041,0-0.065,0-0.104,0
		c-78.746,0-150.382,30.372-203.896,80.021c32.814,35.724,57.714,78.821,71.995,126.517c29.335-41.316,77.487-68.326,132.01-68.353
		c1.818,0,3.604,0.082,5.411,0.134c0.949,0.025,1.914,0.025,2.878,0.069c85.515,4.367,153.525,75.097,153.525,161.707
		c0,89.382-72.442,161.828-161.812,161.907c-1.794-0.013-3.617-0.079-5.388-0.157c-0.979-0.014-1.929-0.014-2.905-0.055
		c-51.075-2.615-95.906-28.908-123.72-68.122c-14.281,47.624-39.139,90.681-71.902,126.394c0.698,0.646,1.359,1.337,2.075,1.984
		c0.208,0.194,0.421,0.382,0.626,0.577c3.342,3.01,6.733,5.968,10.222,8.819c0.265,0.244,0.557,0.446,0.829,0.686
		c3.444,2.823,6.929,5.57,10.48,8.236c0.33,0.242,0.647,0.476,0.96,0.687c3.539,2.655,7.146,5.231,10.802,7.716
		c0.342,0.208,0.685,0.441,1.028,0.655c3.667,2.479,7.394,4.857,11.166,7.152c0.342,0.213,0.686,0.397,0.999,0.615
		c3.832,2.296,7.685,4.523,11.595,6.648c0.31,0.186,0.629,0.344,0.948,0.503c3.961,2.143,7.973,4.207,12.024,6.161
		c0.293,0.132,0.573,0.254,0.832,0.389c4.119,1.966,8.289,3.875,12.515,5.646c0.212,0.104,0.452,0.184,0.672,0.276
		c4.292,1.794,8.608,3.521,12.979,5.101c0.167,0.073,0.343,0.125,0.484,0.187c4.447,1.613,8.949,3.145,13.501,4.559
		c0.109,0.04,0.2,0.051,0.318,0.087c4.592,1.423,9.243,2.748,13.938,3.961c0.055,0.03,0.089,0.03,0.12,0.03
		c4.762,1.225,9.565,2.347,14.41,3.321c0.013,0.011,0.029,0.011,0.029,0.011c4.871,0.992,9.793,1.88,14.742,2.629
		c0.023,0,0.055,0,0.055,0c4.964,0.764,9.924,1.398,14.943,1.914c0.209,0.013,0.422,0.013,0.631,0.056
		c4.83,0.459,9.689,0.856,14.571,1.106c1.739,0.086,3.484,0.065,5.212,0.117c3.354,0.121,6.694,0.269,10.078,0.269
		c0.038,0,0.063,0,0.104,0c0.037,0,0.066,0,0.1,0c83.535,0,159.031-34.141,213.444-89.197l-0.117-0.104
		c53.04-53.727,85.921-127.346,86.487-208.662l0.058-0.029V60.009L1191.959,147.903z"/>
	<path fill="#FCFCFC" d="M529.706,60c-83.522,0-159.031,34.149-213.443,89.212l0.101,0.09l-91.736,91.734l97.24,97.26l91.752-91.747
		l0.352,0.356c29.391-30.057,70.373-48.721,115.735-48.721c89.419,0,161.917,72.474,161.917,161.906
		c0,89.405-72.493,161.907-161.917,161.907c-46.361,0-88.156-19.522-117.68-50.765l-0.41,0.392L0,60.004v135.929v58.57v405.661
		h137.529V392.053L314.372,568.88l-0.045,0.037c54.541,56.236,130.849,91.247,215.379,91.247
		c165.723,0,300.077-134.341,300.077-300.064C829.782,194.356,695.429,60,529.706,60z"/>
</g>
</svg>
