<?xml version="1.0" encoding="utf-8"?>
<!-- Generator: Adobe Illustrator 16.0.0, SVG Export Plug-In . SVG Version: 6.00 Build 0)  -->
<!DOCTYPE svg PUBLIC "-//W3C//DTD SVG 1.1//EN" "http://www.w3.org/Graphics/SVG/1.1/DTD/svg11.dtd">
<svg version="1.1" id="Layer_1" xmlns="http://www.w3.org/2000/svg" xmlns:xlink="http://www.w3.org/1999/xlink" x="0px" y="0px"
	 width="1280px" height="720px" viewBox="0 0 1280 720" enable-background="new 0 0 1280 720" xml:space="preserve">
<g opacity="0.6">
	<path fill="#FE2D01" d="M769.182,310.37c-0.019-0.019-0.041-0.04-0.059-0.059c-0.765-0.758-1.538-1.498-2.334-2.219
		c-0.049-0.05-0.099-0.093-0.147-0.136c-0.783-0.706-1.572-1.394-2.383-2.065c-0.064-0.052-0.13-0.104-0.194-0.16
		c-0.805-0.656-1.621-1.301-2.447-1.92c-0.074-0.055-0.151-0.108-0.229-0.163c-0.825-0.614-1.664-1.214-2.518-1.794
		c-0.083-0.056-0.163-0.105-0.244-0.16c-0.856-0.574-1.726-1.134-2.607-1.671c-0.08-0.049-0.154-0.092-0.234-0.135
		c-0.894-0.54-1.787-1.061-2.706-1.56c-0.074-0.043-0.147-0.074-0.222-0.117c-0.925-0.5-1.861-0.98-2.812-1.437
		c-0.062-0.031-0.129-0.059-0.19-0.089c-0.962-0.459-1.936-0.903-2.922-1.322c-0.05-0.022-0.103-0.041-0.154-0.062
		c-0.999-0.419-2.01-0.823-3.033-1.196c-0.037-0.012-0.08-0.024-0.111-0.04c-1.041-0.379-2.09-0.737-3.156-1.063
		c-0.024-0.012-0.049-0.015-0.067-0.024c-1.079-0.33-2.164-0.641-3.261-0.925c-0.01,0-0.019-0.003-0.031-0.006
		c-1.109-0.283-2.231-0.545-3.359-0.776h-0.013c-1.134-0.234-2.281-0.438-3.439-0.617c-0.007,0-0.01,0-0.013,0
		c-1.159-0.176-2.317-0.327-3.489-0.444c-0.049-0.006-0.099-0.006-0.147-0.012c-1.129-0.108-2.263-0.201-3.403-0.256
		c-0.4-0.021-0.811-0.021-1.218-0.034c-0.779-0.025-1.563-0.062-2.352-0.062c-0.009,0-0.016,0-0.024,0c-0.01,0-0.016,0-0.024,0
		c-18.387,0-35.114,7.092-47.609,18.685c7.662,8.341,13.476,18.404,16.811,29.541c6.849-9.647,18.093-15.954,30.823-15.96
		c0.425,0,0.842,0.019,1.264,0.031c0.222,0.006,0.447,0.006,0.672,0.016c19.967,1.02,35.847,17.535,35.847,37.758
		c0,20.87-16.915,37.786-37.782,37.805c-0.419-0.003-0.845-0.019-1.258-0.037c-0.228-0.003-0.45-0.003-0.678-0.013
		c-11.926-0.61-22.394-6.75-28.888-15.907c-3.335,11.121-9.139,21.175-16.789,29.513c0.163,0.151,0.317,0.312,0.484,0.463
		c0.049,0.046,0.099,0.089,0.147,0.135c0.78,0.703,1.572,1.394,2.386,2.06c0.062,0.056,0.13,0.104,0.194,0.16
		c0.805,0.659,1.618,1.301,2.447,1.923c0.077,0.056,0.151,0.111,0.225,0.16c0.826,0.62,1.668,1.221,2.521,1.801
		c0.08,0.049,0.16,0.104,0.24,0.154c0.857,0.579,1.727,1.134,2.608,1.67c0.08,0.05,0.16,0.093,0.233,0.143
		c0.895,0.536,1.794,1.057,2.707,1.553c0.073,0.043,0.147,0.08,0.222,0.117c0.925,0.5,1.861,0.983,2.808,1.439
		c0.068,0.031,0.133,0.059,0.194,0.09c0.962,0.459,1.936,0.906,2.922,1.319c0.05,0.024,0.105,0.043,0.157,0.064
		c1.002,0.419,2.01,0.823,3.03,1.192c0.04,0.016,0.08,0.028,0.114,0.043c1.038,0.377,2.09,0.734,3.152,1.064
		c0.025,0.009,0.047,0.012,0.074,0.021c1.073,0.332,2.158,0.641,3.255,0.924c0.013,0.007,0.021,0.007,0.028,0.007
		c1.112,0.286,2.234,0.548,3.365,0.776c0.003,0.003,0.007,0.003,0.007,0.003c1.137,0.231,2.287,0.438,3.442,0.613
		c0.006,0,0.013,0,0.013,0c1.159,0.179,2.317,0.327,3.489,0.447c0.049,0.003,0.099,0.003,0.147,0.013
		c1.128,0.107,2.263,0.2,3.403,0.259c0.406,0.019,0.813,0.015,1.217,0.027c0.783,0.028,1.563,0.062,2.353,0.062
		c0.009,0,0.015,0,0.024,0c0.009,0,0.016,0,0.024,0c19.505,0,37.133-7.971,49.838-20.827l-0.028-0.024
		c12.385-12.545,20.063-29.734,20.195-48.722l0.013-0.006v-70.554L769.182,310.37z"/>
	<path fill="#FE2D01" d="M614.549,289.845c-19.502,0-37.133,7.974-49.838,20.831l0.023,0.021l-21.42,21.419l22.706,22.71
		l21.423-21.422l0.082,0.083c6.863-7.018,16.432-11.376,27.024-11.376c20.879,0,37.807,16.922,37.807,37.804
		c0,20.876-16.927,37.805-37.807,37.805c-10.825,0-20.584-4.559-27.478-11.854l-0.095,0.092l-96.111-96.112v31.739v13.676v94.719
		h32.113v-62.602l41.292,41.288l-0.011,0.009c12.735,13.131,30.553,21.305,50.29,21.305c38.695,0,70.066-31.368,70.066-70.063
		C684.615,321.217,653.244,289.845,614.549,289.845z"/>
</g>
</svg>
