<?xml version="1.0" encoding="utf-8"?>
<!-- Generator: Adobe Illustrator 16.0.0, SVG Export Plug-In . SVG Version: 6.00 Build 0)  -->
<!DOCTYPE svg PUBLIC "-//W3C//DTD SVG 1.1//EN" "http://www.w3.org/Graphics/SVG/1.1/DTD/svg11.dtd">
<svg version="1.1" id="Layer_1" xmlns="http://www.w3.org/2000/svg" xmlns:xlink="http://www.w3.org/1999/xlink" x="0px" y="0px"
	 width="83px" height="119.314px" viewBox="0 0 83 119.314" enable-background="new 0 0 83 119.314" xml:space="preserve">
<g id="Layer_1_1_">
	<g opacity="0.5">
		<path fill="#FFFFFF" d="M41.5,119.315C18.617,119.315,0,92.553,0,59.658C0,40.676,2.401,27.452,7.558,18.04
			C14.208,5.901,25.311,0,41.5,0c16.189,0,27.292,5.9,33.941,18.04C80.6,27.452,83,40.676,83,59.658
			C83,92.553,64.383,119.315,41.5,119.315L41.5,119.315z M41.5,5C15.575,5,5,20.835,5,59.658c0,30.138,16.374,54.657,36.5,54.657
			S78,89.796,78,59.658C78,20.835,67.425,5,41.5,5L41.5,5z"/>
	</g>
	<g>
		<path fill="#ED1C24" d="M41.5,45.982c-2.485,0-4.5-2.015-4.5-4.5V19.815c0-2.484,2.015-4.5,4.5-4.5c2.484,0,4.5,2.016,4.5,4.5
			v21.667C46,43.967,43.984,45.982,41.5,45.982L41.5,45.982z"/>
	</g>
</g>
</svg>
