<?xml version="1.0" encoding="utf-8"?>
<!-- Generator: Adobe Illustrator 14.0.0, SVG Export Plug-In . SVG Version: 6.00 Build 43363)  -->
<!DOCTYPE svg PUBLIC "-//W3C//DTD SVG 1.1//EN" "http://www.w3.org/Graphics/SVG/1.1/DTD/svg11.dtd">
<svg version="1.1" xmlns="http://www.w3.org/2000/svg" xmlns:xlink="http://www.w3.org/1999/xlink" x="0px" y="0px" width="83px"
	 height="172.229px" viewBox="0 0 83 172.229" enable-background="new 0 0 83 172.229" xml:space="preserve">
<g id="Layer_2">
</g>
<g id="Layer_1">
	<g opacity="0.5">
		<path fill="#FFFFFF" d="M41.5,119.315C18.617,119.315,0,92.553,0,59.658C0,40.676,2.401,27.452,7.558,18.04
			C14.208,5.901,25.311,0,41.5,0s27.292,5.901,33.942,18.04C80.599,27.452,83,40.676,83,59.658
			C83,92.553,64.383,119.315,41.5,119.315L41.5,119.315z M41.5,5C15.575,5,5,20.835,5,59.658c0,30.138,16.374,54.658,36.5,54.658
			S78,89.796,78,59.658C78,20.835,67.425,5,41.5,5L41.5,5z"/>
	</g>
	<g>
		<path fill="#ED1C24" d="M41.5,45.982c-2.485,0-4.5-2.015-4.5-4.5V19.815c0-2.485,2.015-4.5,4.5-4.5s4.5,2.015,4.5,4.5v21.667
			C46,43.967,43.985,45.982,41.5,45.982L41.5,45.982z"/>
	</g>
	<g>
		<path fill="#FFFFFF" d="M9.552,165.33c-3.24,0-5.701-0.69-7.801-2.82l2.699-2.7c1.352,1.35,3.182,1.8,5.16,1.8
			c2.461,0,3.781-0.93,3.781-2.64c0-0.75-0.211-1.38-0.66-1.8c-0.42-0.39-0.9-0.6-1.891-0.75l-2.58-0.36
			c-1.83-0.27-3.18-0.84-4.141-1.77c-1.02-1.02-1.529-2.4-1.529-4.2c0-3.81,2.82-6.479,7.439-6.479c2.939,0,5.07,0.72,6.9,2.49
			l-2.641,2.61c-1.35-1.29-2.969-1.47-4.379-1.47c-2.221,0-3.301,1.23-3.301,2.7c0,0.54,0.18,1.11,0.631,1.53
			c0.42,0.39,1.109,0.72,1.98,0.84l2.52,0.36c1.949,0.27,3.18,0.81,4.08,1.65c1.139,1.08,1.648,2.64,1.648,4.53
			C17.47,162.99,14.021,165.33,9.552,165.33z"/>
		<path fill="#FFFFFF" d="M27.31,165.33c-3.119,0-6.988-1.68-6.988-8.01c0-6.33,3.869-7.98,6.988-7.98c2.16,0,3.781,0.66,5.16,2.1
			l-2.639,2.64c-0.811-0.87-1.5-1.23-2.521-1.23c-0.93,0-1.648,0.33-2.219,1.02c-0.6,0.75-0.871,1.8-0.871,3.45
			s0.271,2.73,0.871,3.48c0.57,0.69,1.289,1.02,2.219,1.02c1.021,0,1.711-0.36,2.521-1.23l2.639,2.61
			C31.091,164.64,29.47,165.33,27.31,165.33z"/>
		<path fill="#FFFFFF" d="M43.991,153.78c-0.602-0.6-1.111-0.93-2.07-0.93c-1.199,0-2.52,0.9-2.52,2.88v9.419h-3.9V149.52h3.811v1.5
			c0.75-0.9,2.25-1.68,3.93-1.68c1.529,0,2.609,0.39,3.689,1.47L43.991,153.78z"/>
		<path fill="#FFFFFF" d="M59.021,163.41c-0.961,1.02-2.551,1.92-4.859,1.92c-2.311,0-3.871-0.9-4.83-1.92
			c-1.41-1.47-1.77-3.24-1.77-6.09c0-2.82,0.359-4.59,1.77-6.06c0.959-1.02,2.52-1.92,4.83-1.92c2.309,0,3.898,0.9,4.859,1.92
			c1.41,1.47,1.77,3.24,1.77,6.06C60.79,160.169,60.431,161.939,59.021,163.41z M55.991,153.54c-0.451-0.45-1.051-0.69-1.83-0.69
			c-0.781,0-1.352,0.24-1.801,0.69c-0.811,0.81-0.9,2.16-0.9,3.78c0,1.62,0.09,3,0.9,3.81c0.449,0.45,1.02,0.69,1.801,0.69
			c0.779,0,1.379-0.24,1.83-0.69c0.809-0.81,0.898-2.19,0.898-3.81C56.89,155.7,56.8,154.35,55.991,153.54z"/>
		<path fill="#FFFFFF" d="M68.921,165.149c-3.211,0-4.561-2.25-4.561-4.47v-16.889h3.9v16.649c0,0.93,0.391,1.41,1.379,1.41h1.5v3.3
			H68.921z"/>
		<path fill="#FFFFFF" d="M78.671,165.149c-3.211,0-4.561-2.25-4.561-4.47v-16.889h3.9v16.649c0,0.93,0.391,1.41,1.379,1.41h1.5v3.3
			H78.671z"/>
	</g>
</g>
</svg>
