<?xml version="1.0" encoding="utf-8"?>
<!-- Generator: Adobe Illustrator 16.0.0, SVG Export Plug-In . SVG Version: 6.00 Build 0)  -->
<!DOCTYPE svg PUBLIC "-//W3C//DTD SVG 1.1//EN" "http://www.w3.org/Graphics/SVG/1.1/DTD/svg11.dtd">
<svg version="1.1" id="Layer_1" xmlns="http://www.w3.org/2000/svg" xmlns:xlink="http://www.w3.org/1999/xlink" x="0px" y="0px"
	 width="536.775px" height="197.988px" viewBox="0 0 536.775 197.988" enable-background="new 0 0 536.775 197.988"
	 xml:space="preserve">
<rect y="0" fill="none" width="536.775" height="197.988"/>
<path fill="#EB2147" d="M450.326,109.953c0-17.949,14.551-32.5,32.5-32.5c6.053,0,11.718,1.66,16.568,4.543
	c0.72-0.689,1.523-1.314,2.41-1.851c2.864-1.73,6.105-2.29,9.17-1.821V0H0v160.992h450.186c-1.213-1.209-2.309-2.568-3.234-4.101
	c-6.153-10.177-2.891-23.418,7.288-29.571c0.271-0.164,0.551-0.311,0.825-0.461C452.058,121.933,450.326,116.146,450.326,109.953"/>
<rect fill="#EB2147" width="510.975" height="160.992"/>
</svg>
