<svg version="1.1" class="logo-def" xmlns="http://www.w3.org/2000/svg" xmlns:xlink="http://www.w3.org/1999/xlink" xml:space="preserve">
    <defs>
        <g id="logo-def">
            <path d="M1191.959,137.903c-0.081-0.082-0.176-0.171-0.252-0.254c-3.274-3.245-6.587-6.415-9.995-9.504
                c-0.209-0.213-0.422-0.396-0.631-0.582c-3.351-3.024-6.729-5.97-10.205-8.843c-0.271-0.225-0.557-0.446-0.827-0.686
                c-3.452-2.81-6.943-5.571-10.481-8.223c-0.318-0.237-0.65-0.463-0.984-0.699c-3.53-2.629-7.126-5.199-10.782-7.683
                c-0.354-0.24-0.698-0.449-1.045-0.686c-3.664-2.457-7.391-4.855-11.166-7.157c-0.34-0.208-0.658-0.392-1.001-0.576
                c-3.83-2.312-7.652-4.544-11.589-6.681c-0.318-0.185-0.632-0.318-0.949-0.502c-3.965-2.142-7.973-4.197-12.046-6.155
                c-0.263-0.131-0.551-0.253-0.812-0.38c-4.119-1.966-8.293-3.867-12.518-5.663c-0.212-0.094-0.438-0.173-0.656-0.266
                c-4.278-1.794-8.611-3.523-12.991-5.122c-0.157-0.052-0.343-0.102-0.476-0.171c-4.459-1.623-8.95-3.156-13.514-4.552
                c-0.105-0.051-0.213-0.065-0.288-0.103c-4.622-1.415-9.27-2.746-13.967-3.961c-0.045,0-0.082-0.015-0.133-0.027
                c-4.751-1.21-9.557-2.333-14.387-3.323h-0.055c-4.856-1.002-9.771-1.875-14.73-2.644c-0.029,0-0.041,0-0.054,0
                c-4.965-0.752-9.925-1.397-14.944-1.9c-0.208-0.025-0.422-0.025-0.627-0.05c-4.836-0.465-9.69-0.862-14.574-1.098
                c-1.717-0.089-3.474-0.089-5.216-0.145c-3.34-0.109-6.697-0.266-10.075-0.266c-0.039,0-0.068,0-0.102,0c-0.042,0-0.066,0-0.104,0
                c-78.746,0-150.382,30.372-203.896,80.021c32.814,35.724,57.713,78.821,71.995,126.517c29.335-41.316,77.487-68.326,132.009-68.353
                c1.819,0,3.605,0.082,5.411,0.134c0.95,0.025,1.915,0.025,2.878,0.069c85.515,4.367,153.526,75.097,153.526,161.707
                c0,89.382-72.443,161.828-161.812,161.907c-1.794-0.013-3.617-0.079-5.387-0.157c-0.979-0.014-1.929-0.014-2.906-0.055
                c-51.075-2.615-95.906-28.908-123.719-68.122c-14.282,47.624-39.139,90.681-71.903,126.394c0.698,0.646,1.36,1.336,2.075,1.984
                c0.208,0.194,0.421,0.382,0.626,0.577c3.342,3.01,6.734,5.968,10.222,8.819c0.265,0.244,0.557,0.447,0.829,0.686
                c3.445,2.823,6.929,5.57,10.481,8.236c0.33,0.242,0.647,0.476,0.96,0.687c3.539,2.655,7.145,5.231,10.801,7.716
                c0.342,0.208,0.685,0.441,1.029,0.655c3.667,2.479,7.393,4.857,11.166,7.152c0.342,0.213,0.685,0.398,0.999,0.615
                c3.832,2.296,7.684,4.524,11.594,6.649c0.31,0.185,0.629,0.344,0.949,0.503c3.961,2.142,7.972,4.207,12.024,6.161
                c0.293,0.132,0.573,0.254,0.832,0.389c4.119,1.965,8.289,3.875,12.515,5.646c0.212,0.105,0.452,0.184,0.672,0.276
                c4.292,1.794,8.608,3.521,12.979,5.101c0.167,0.073,0.343,0.125,0.485,0.187c4.447,1.613,8.949,3.144,13.501,4.558
                c0.109,0.04,0.2,0.051,0.318,0.087c4.592,1.423,9.243,2.748,13.938,3.961c0.055,0.03,0.089,0.03,0.121,0.03
                c4.761,1.225,9.565,2.347,14.41,3.322c0.012,0.01,0.029,0.01,0.029,0.01c4.871,0.992,9.793,1.88,14.742,2.629
                c0.024,0,0.055,0,0.055,0c4.964,0.764,9.924,1.399,14.943,1.914c0.209,0.013,0.422,0.013,0.631,0.056
                c4.83,0.459,9.69,0.856,14.571,1.106c1.74,0.086,3.485,0.066,5.212,0.118c3.354,0.121,6.695,0.268,10.079,0.268
                c0.038,0,0.063,0,0.104,0c0.037,0,0.066,0,0.1,0c83.535,0,159.031-34.141,213.444-89.197l-0.117-0.105
                c53.04-53.726,85.921-127.345,86.487-208.662l0.058-0.029V50.009L1191.959,137.903z"/>
            <path d="M529.706,50c-83.522,0-159.031,34.149-213.443,89.212l0.1,0.09l-91.736,91.734l97.24,97.26l91.752-91.747
                l0.352,0.356c29.39-30.057,70.373-48.721,115.735-48.721c89.419,0,161.917,72.474,161.917,161.906
                c0,89.405-72.493,161.907-161.917,161.907c-46.361,0-88.156-19.522-117.68-50.765l-0.41,0.392L0,50.004v135.929v58.57v405.661
                h137.529V382.053L314.372,558.88l-0.045,0.037c54.541,56.236,130.849,91.247,215.379,91.247
                c165.723,0,300.077-134.341,300.077-300.064C829.782,184.356,695.429,50,529.706,50z"/>
        </g>

        <g id="wwd-ico1">
            <path d="M42.2,48.722h-8.086V45.09c0-1.104-0.895-1.998-1.999-1.998c-1.104,0-1.998,0.895-1.998,1.998v3.632h-8.085
                c-1.104,0-1.998,0.895-1.998,1.999c0,1.104,0.894,1.998,1.998,1.998H42.2c1.104,0,1.998-0.895,1.998-1.998
                C44.198,49.616,43.304,48.722,42.2,48.722z"/>
            <path d="M60.003,0H3.996C1.789,0,0,1.79,0,3.996v32.467c0,2.207,1.789,3.996,3.996,3.996h56.007
                c2.207,0,3.997-1.789,3.997-3.996V3.996C64,1.79,62.21,0,60.003,0z M3.996,36.463V33.58h38.451c0.735,0,1.332-0.597,1.332-1.332
                s-0.597-1.332-1.332-1.332H3.996V3.996h56.007v26.92H50.56c-0.735,0-1.332,0.597-1.332,1.332s0.597,1.332,1.332,1.332h9.443v2.883
                H3.996z"/>
        </g>

        <g id="wwd-ico2">
            <path d="M53.737,32.931H47.91c-0.291,0-0.579,0.063-0.843,0.186l-4.696,2.179v-3.727
                c0-1.106-0.896-2.002-2.003-2.002H3.635c-1.105,0-2.002,0.896-2.002,2.002v6.728c0,1.106,0.896,2.002,2.002,2.002h4.131v9.847
                c0,1.105,0.896,2.002,2.002,2.002h30.601c1.106,0,2.003-0.897,2.003-2.002v-2.711l4.695,2.18c0.265,0.123,0.553,0.186,0.844,0.186
                h5.827c1.106,0,2.003-0.896,2.003-2.002V34.933C55.74,33.827,54.844,32.931,53.737,32.931z M11.771,48.143v-9.288h16.473
                c0.737,0,1.335-0.598,1.335-1.335s-0.598-1.335-1.335-1.335H5.638v-2.614h32.728v2.614h-4.031c-0.737,0-1.335,0.598-1.335,1.335
                s0.598,1.335,1.335,1.335h4.031v9.288H11.771z M51.734,45.796H48.94v-4.923c0-0.737-0.599-1.335-1.335-1.335
                c-0.737,0-1.336,0.598-1.336,1.335v3.957l-3.056-1.419v-4.09l5.138-2.384h3.383V45.796z"/>
            <path d="M26.369,55.213c-0.748-0.637-1.849-0.637-2.597,0l-6.174,5.259c-0.843,0.717-0.943,1.981-0.227,2.823
                c0.719,0.843,1.982,0.942,2.823,0.226l4.875-4.153l4.878,4.154C30.325,63.843,30.787,64,31.246,64c0.566,0,1.129-0.239,1.525-0.704
                c0.717-0.842,0.615-2.106-0.227-2.823L26.369,55.213z"/>
            <path d="M13.535,27.071c4.879,0,9.15-2.604,11.531-6.486c2.383,3.882,6.654,6.486,11.533,6.486
                c7.464,0,13.535-6.072,13.535-13.536C50.135,6.072,44.063,0,36.6,0c-4.879,0-9.15,2.604-11.533,6.486
                C22.686,2.604,18.414,0,13.535,0C6.072,0,0,6.072,0,13.535C0,20.999,6.072,27.071,13.535,27.071z M36.6,4.005
                c5.256,0,9.53,4.275,9.53,9.53s-4.274,9.531-9.53,9.531c-5.254,0-9.53-4.276-9.53-9.531S31.346,4.005,36.6,4.005z M13.535,4.005
                c5.254,0,9.529,4.275,9.529,9.53s-4.275,9.531-9.529,9.531c-5.255,0-9.529-4.276-9.529-9.531S8.28,4.005,13.535,4.005z"/>
            <path d="M13.535,17.823c2.364,0,4.288-1.924,4.288-4.288s-1.924-4.288-4.288-4.288s-4.288,1.924-4.288,4.288
                S11.171,17.823,13.535,17.823z M13.535,11.917c0.893,0,1.618,0.726,1.618,1.618s-0.726,1.618-1.618,1.618s-1.618-0.726-1.618-1.618
                S12.643,11.917,13.535,11.917z"/>
            <path d="M36.6,17.823c2.365,0,4.289-1.924,4.289-4.288S38.965,9.247,36.6,9.247c-2.363,0-4.287,1.924-4.287,4.288
                S34.236,17.823,36.6,17.823z M36.6,11.917c0.893,0,1.618,0.726,1.618,1.618s-0.726,1.618-1.618,1.618s-1.617-0.726-1.617-1.618
                S35.707,11.917,36.6,11.917z"/>
        </g>

        <g id="wwd-ico3">
            <path d="M43.558,0H20.442C9.171,0,0,9.171,0,20.442v23.115C0,54.831,9.171,64,20.442,64h23.115
                C54.83,64,64,54.831,64,43.558V20.442C64,9.171,54.83,0,43.558,0z M59.979,43.558c0,9.07-7.353,16.423-16.422,16.423H20.442
                c-9.068,0-16.422-7.353-16.422-16.423V20.442c0-9.07,7.354-16.422,16.422-16.422h23.115c9.069,0,16.422,7.352,16.422,16.422V43.558
                z"/>
            <path d="M8.212,37.118c0.74,0,1.34-0.6,1.34-1.34V19.933c0-5.725,4.656-10.382,10.381-10.382h24.135
                c2.438,0,4.808,0.866,6.676,2.438c0.564,0.476,1.411,0.403,1.889-0.161c0.476-0.568,0.403-1.413-0.163-1.89
                c-2.351-1.977-5.334-3.066-8.401-3.066H19.933c-7.202,0-13.062,5.859-13.062,13.062v15.846C6.871,36.519,7.472,37.118,8.212,37.118
                z"/>
            <path d="M54.449,18.859v25.208c0,5.725-4.657,10.382-10.382,10.382H19.933c-5.725,0-10.381-4.657-10.381-10.382
                c0-0.739-0.6-1.34-1.34-1.34s-1.341,0.601-1.341,1.34c0,7.203,5.859,13.063,13.062,13.063h24.135
                c7.203,0,13.063-5.859,13.063-13.063V18.859c0-0.741-0.601-1.341-1.341-1.341S54.449,18.118,54.449,18.859z"/>
            <path d="M24.075,20.687c-0.415-0.206-0.909-0.186-1.305,0.06c-0.395,0.243-0.635,0.675-0.635,1.14v20.23
                c0,0.465,0.24,0.896,0.635,1.141c0.215,0.133,0.46,0.2,0.705,0.2c0.205,0,0.41-0.048,0.6-0.142l20.23-10.116
                c0.454-0.228,0.74-0.691,0.74-1.199s-0.286-0.972-0.74-1.199L24.075,20.687z M24.815,39.948V24.055L40.71,32L24.815,39.948z"/>
        </g>

        <g id="wwd-ico4">
        	<path d="M1.991,42.758c-0.733,0-1.328,0.594-1.328,1.327v2.044c0,0.733,0.595,1.328,1.328,1.328
        		c0.732,0,1.327-0.595,1.327-1.328v-2.044C3.318,43.352,2.724,42.758,1.991,42.758z"/>
        	<path d="M63.985,31.408C63.667,14.037,49.446,0,32,0S0.332,14.037,0.015,31.408C0.011,31.459,0,31.506,0,31.558
        		v6.329c0,1.1,0.891,1.991,1.991,1.991c1.1,0,1.991-0.892,1.991-1.991V32C3.982,16.551,16.551,3.982,32,3.982
        		c15.448,0,28.017,12.568,28.017,28.018v5.887c0,1.1,0.892,1.991,1.992,1.991c1.1,0,1.991-0.892,1.991-1.991v-6.329
        		C64,31.506,63.989,31.459,63.985,31.408z"/>
        	<path d="M62.009,42.758c-0.733,0-1.328,0.594-1.328,1.327v2.044c0,0.733,0.595,1.328,1.328,1.328
        		c0.732,0,1.327-0.595,1.327-1.328v-2.044C63.336,43.352,62.741,42.758,62.009,42.758z"/>
        	<path d="M18.009,33.558H14.8c-1.894,0-3.479,1.322-3.883,3.095c-3.249,1.273-5.148,4.271-5.148,8.438
        		c0,4.168,1.899,7.165,5.148,8.439c0.403,1.771,1.989,3.094,3.883,3.094h3.209c2.199,0,3.982-1.783,3.982-3.982V37.54
        		C21.991,35.341,20.208,33.558,18.009,33.558z M9.751,45.09c0-2.778,1.104-4.068,2.421-4.658v9.318
        		C10.854,49.158,9.751,47.869,9.751,45.09z M18.009,52.641h-3.182V37.885c0-0.09-0.01-0.178-0.027-0.264V37.54h3.209V52.641z"/>
        	<path d="M52.98,36.652c-0.404-1.772-1.989-3.095-3.884-3.095h-3.21c-2.199,0-3.982,1.783-3.982,3.982v15.101
        		c0,2.199,1.783,3.982,3.982,3.982h3.21c1.895,0,3.479-1.322,3.884-3.094c3.248-1.274,5.146-4.272,5.146-8.439
        		C58.127,40.924,56.229,37.926,52.98,36.652z M45.887,52.641V37.54h3.21v0.076c-0.018,0.087-0.027,0.177-0.027,0.269v14.756H45.887z
        		 M51.725,49.75v-9.318c1.315,0.59,2.42,1.88,2.42,4.658C54.145,47.869,53.04,49.158,51.725,49.75z"/>
        </g>

        <g id="menu-button">
        	<path d="M58.375,65.047H6.671C2.993,65.047,0,62.054,0,58.375V6.672C0,2.993,2.993,0,6.671,0h51.704
        		c3.678,0,6.671,2.993,6.671,6.672v51.703C65.046,62.054,62.054,65.047,58.375,65.047z M6.671,3.336
        		c-1.84,0-3.335,1.496-3.335,3.336v51.703c0,1.84,1.496,3.336,3.335,3.336h51.704c1.839,0,3.336-1.496,3.336-3.336V6.672
        		c0-1.84-1.497-3.336-3.336-3.336H6.671z"/>
        	<g>
        		<rect x="17.373" y="29.883" width="30.299" height="5.004"/>
        		<rect x="17.375" y="17.095" width="30.299" height="5.004"/>
        		<rect x="17.375" y="42.946" width="30.299" height="5.004"/>
        	</g>
        </g>


        <g id="scroll-down-off">
            <circle cx="20" cy="20" r="20" fill="#FFFFFF" fill-opacity="0" />
            <path d="M24.246,19.104l-2.242,2.242v-8.343c0-1.104-0.896-2-2-2s-2,0.896-2,2v8.343l-2.243-2.242
                c-0.781-0.781-2.047-0.781-2.828,0s-0.781,2.048,0,2.828l5.657,5.657h-0.001c0.391,0.391,0.902,0.586,1.415,0.586
                c0.256,0,0.512-0.049,0.752-0.146c0.241-0.098,0.467-0.244,0.662-0.439l5.656-5.657c0.781-0.78,0.781-2.047,0-2.828
                C26.294,18.322,25.027,18.322,24.246,19.104z M30.004,2.683C20.438-2.84,8.206,0.438,2.684,10.004
                c-5.523,9.565-2.246,21.797,7.32,27.32c9.565,5.522,21.798,2.245,27.32-7.32C42.848,20.438,39.569,8.206,30.004,2.683z
                 M33.86,28.004c-4.419,7.652-14.204,10.274-21.856,5.855C4.352,29.441,1.729,19.656,6.147,12.004
                c4.418-7.653,14.203-10.275,21.856-5.856C35.656,10.565,38.278,20.351,33.86,28.004z"/>
        </g>

        <g id="scroll-down">
        	<path fill="#FFFFFF" d="M124.852,149.631c-13.729,0-24.896-16.055-24.896-35.79c0-11.388,1.439-19.322,4.533-24.968
        		c3.99-7.281,10.649-10.822,20.362-10.822s16.372,3.542,20.363,10.822c3.093,5.646,4.532,13.577,4.532,24.968
        		C149.747,133.578,138.578,149.631,124.852,149.631L124.852,149.631z M124.852,81.053c-15.553,0-21.897,9.5-21.897,32.792
        		c0,18.079,9.826,32.79,21.897,32.79c12.072,0,21.897-14.711,21.897-32.79C146.749,90.551,140.404,81.053,124.852,81.053
        		L124.852,81.053z"/>
        	<path fill="#FE2D01" d="M124.852,105.636c-1.489,0-2.698-1.207-2.698-2.696V89.941c0-1.492,1.209-2.699,2.698-2.699
        		c1.492,0,2.699,1.207,2.699,2.699v12.998C127.551,104.43,126.344,105.636,124.852,105.636L124.852,105.636z"/>
        	<text transform="matrix(1 0 0 1 86.873 186.6836)" fill="#FFFFFF" font-family="dinpro" font-weight="bold" font-size="15.3527">scroll down</text>
        </g>

        <g id="social-facebook">
            <path id="Facebook__x28_alt_x29_" d="M95,20.001C95,12.119,87.884,5,80,5h-60C12.116,5,5,12.119,5,20.001v59.998
            	C5,87.881,12.116,95,20.001,95H50V61H39V46h11v-5.844C50,30.077,57.569,21,66.875,21H79v15H66.875C65.548,36,64,37.611,64,40.024V46
            	h15v15H64v34h16c7.884,0,15-7.119,15-15.001V20.001z"/>
        </g>

        <g id="social-twitter">
            <path d="M512,97.209c-18.838,8.354-39.082,14.001-60.33,16.54c21.687-13,38.343-33.585,46.187-58.115
            	c-20.299,12.039-42.778,20.78-66.705,25.49c-19.16-20.415-46.461-33.17-76.674-33.17c-58.011,0-105.043,47.029-105.043,105.039
            	c0,8.233,0.929,16.25,2.72,23.939c-87.3-4.382-164.701-46.2-216.509-109.753c-9.042,15.514-14.223,33.558-14.223,52.809
            	c0,36.444,18.544,68.596,46.73,87.433c-17.219-0.546-33.416-5.271-47.577-13.139c-0.01,0.438-0.01,0.878-0.01,1.321
            	c0,50.894,36.209,93.348,84.261,103c-8.813,2.399-18.094,3.686-27.674,3.686c-6.769,0-13.349-0.66-19.764-1.887
            	c13.368,41.73,52.16,72.104,98.126,72.949c-35.95,28.175-81.243,44.967-130.458,44.967c-8.479,0-16.84-0.497-25.058-1.471
            	c46.486,29.806,101.701,47.197,161.021,47.197c193.211,0,298.868-160.062,298.868-298.872c0-4.554-0.103-9.084-0.305-13.59
            	C480.11,136.773,497.918,118.273,512,97.209z"/>
        </g>

        <g id="social-vimeo">
            <path d="M17.811,0c2.017,0.053,3.026,1.198,3.036,3.438c0,0.147-0.005,0.3-0.013,0.457c-0.089,1.899-1.502,4.486-4.245,7.76
            	c-2.829,3.43-5.229,5.147-7.2,5.156c-1.226,0-2.244-1.05-3.061-3.151L5.47,10.78L4.622,7.904C3.997,5.82,3.329,4.78,2.616,4.78
            	c-0.156,0-0.697,0.304-1.626,0.91L0,4.519l1.536-1.276L3.047,1.98C4.4,0.896,5.429,0.31,6.135,0.223
            	C6.229,0.213,6.323,0.21,6.419,0.21c1.449,0,2.354,1.041,2.709,3.124C9.326,4.522,9.49,5.488,9.623,6.23
            	C9.752,6.974,9.86,7.492,9.946,7.787c0.479,1.97,0.995,2.96,1.55,2.968c0.426,0,1.082-0.642,1.968-1.926
            	c0.866-1.319,1.332-2.296,1.392-2.932c0.019-0.129,0.026-0.25,0.026-0.362c0-0.861-0.474-1.29-1.418-1.29
            	c-0.479,0-0.99,0.102-1.537,0.299c0.98-3.021,2.864-4.534,5.65-4.544C17.655,0,17.732,0,17.811,0z"/>
        </g>

        <g id="social-linkedin">
            <path id="LinkedIn" d="M95,59.727V93H75.71V61.955c0-7.799-2.79-13.121-9.773-13.121c-5.33,0-8.502,3.587-9.897,7.056
            	c-0.509,1.241-0.64,2.967-0.64,4.704V93H36.104c0,0,0.26-52.58,0-58.028h19.295v8.225c-0.039,0.062-0.09,0.128-0.127,0.188h0.127
            	v-0.188c2.563-3.948,7.141-9.588,17.388-9.588C85.483,33.609,95,41.903,95,59.727z M15.919,7C9.318,7,5,11.33,5,17.024
            	c0,5.57,4.193,10.031,10.663,10.031h0.129c6.729,0,10.914-4.46,10.914-10.031C26.579,11.33,22.521,7,15.919,7z M6.146,93h19.289
            	V34.972H6.146V93z"/>
        </g>
    </defs>
</svg>