<?xml version="1.0" encoding="utf-8"?>
<!-- Generator: Adobe Illustrator 16.0.0, SVG Export Plug-In . SVG Version: 6.00 Build 0)  -->
<!DOCTYPE svg PUBLIC "-//W3C//DTD SVG 1.1//EN" "http://www.w3.org/Graphics/SVG/1.1/DTD/svg11.dtd">
<svg version="1.1" id="Layer_1" xmlns="http://www.w3.org/2000/svg" xmlns:xlink="http://www.w3.org/1999/xlink" x="0px" y="0px"
	 width="174.25px" height="174.25px" viewBox="41.25 41.25 174.25 174.25" enable-background="new 41.25 41.25 174.25 174.25"
	 xml:space="preserve">
<g id="scroll-down">
	<path fill="#FFFFFF" d="M124.852,149.631c-13.729,0-24.896-16.055-24.896-35.79c0-11.388,1.439-19.322,4.533-24.968
		c3.99-7.281,10.649-10.822,20.362-10.822s16.372,3.542,20.363,10.822c3.093,5.646,4.532,13.577,4.532,24.968
		C149.747,133.578,138.578,149.631,124.852,149.631L124.852,149.631z M124.852,81.053c-15.553,0-21.897,9.5-21.897,32.792
		c0,18.079,9.826,32.79,21.897,32.79c12.072,0,21.897-14.711,21.897-32.79C146.749,90.551,140.404,81.053,124.852,81.053
		L124.852,81.053z"/>
	<path fill="#ED1C24" d="M124.852,105.636c-1.489,0-2.698-1.207-2.698-2.696V89.941c0-1.492,1.209-2.699,2.698-2.699
		c1.492,0,2.699,1.207,2.699,2.699v12.998C127.551,104.43,126.344,105.636,124.852,105.636L124.852,105.636z"/>
	<text transform="matrix(1 0 0 1 84.873 186.6836)" fill="#FFFFFF" font-family="'Arial-BoldMT'" font-size="15.3527">Scroll down</text>
</g>
</svg>
