<?xml version="1.0" encoding="utf-8"?>
<!-- Generator: Adobe Illustrator 14.0.0, SVG Export Plug-In . SVG Version: 6.00 Build 43363)  -->
<!DOCTYPE svg PUBLIC "-//W3C//DTD SVG 1.1//EN" "http://www.w3.org/Graphics/SVG/1.1/DTD/svg11.dtd">
<svg version="1.1" id="Icon" xmlns="http://www.w3.org/2000/svg" xmlns:xlink="http://www.w3.org/1999/xlink" x="0px" y="0px"
	 width="64px" height="56.623px" viewBox="0 0 64 56.623" enable-background="new 0 0 64 56.623" xml:space="preserve">
<g>
	<path fill="#736E7C" d="M1.991,42.758c-0.733,0-1.328,0.594-1.328,1.327v2.044c0,0.733,0.595,1.328,1.328,1.328
		c0.732,0,1.327-0.595,1.327-1.328v-2.044C3.318,43.352,2.724,42.758,1.991,42.758z"/>
	<path fill="#736E7C" d="M63.985,31.408C63.667,14.037,49.446,0,32,0S0.332,14.037,0.015,31.408C0.011,31.459,0,31.506,0,31.558
		v6.329c0,1.1,0.891,1.991,1.991,1.991c1.1,0,1.991-0.892,1.991-1.991V32C3.982,16.551,16.551,3.982,32,3.982
		c15.448,0,28.017,12.568,28.017,28.018v5.887c0,1.1,0.892,1.991,1.992,1.991c1.1,0,1.991-0.892,1.991-1.991v-6.329
		C64,31.506,63.989,31.459,63.985,31.408z"/>
	<path fill="#736E7C" d="M62.009,42.758c-0.733,0-1.328,0.594-1.328,1.327v2.044c0,0.733,0.595,1.328,1.328,1.328
		c0.732,0,1.327-0.595,1.327-1.328v-2.044C63.336,43.352,62.741,42.758,62.009,42.758z"/>
	<path fill="#736E7C" d="M18.009,33.558H14.8c-1.894,0-3.479,1.322-3.883,3.095c-3.249,1.273-5.148,4.271-5.148,8.438
		c0,4.168,1.899,7.165,5.148,8.439c0.403,1.771,1.989,3.094,3.883,3.094h3.209c2.199,0,3.982-1.783,3.982-3.982V37.54
		C21.991,35.341,20.208,33.558,18.009,33.558z M9.751,45.09c0-2.778,1.104-4.068,2.421-4.658v9.318
		C10.854,49.158,9.751,47.869,9.751,45.09z M18.009,52.641h-3.182V37.885c0-0.09-0.01-0.178-0.027-0.264V37.54h3.209V52.641z"/>
	<path fill="#736E7C" d="M52.98,36.652c-0.404-1.772-1.989-3.095-3.884-3.095h-3.21c-2.199,0-3.982,1.783-3.982,3.982v15.101
		c0,2.199,1.783,3.982,3.982,3.982h3.21c1.895,0,3.479-1.322,3.884-3.094c3.248-1.274,5.146-4.272,5.146-8.439
		C58.127,40.924,56.229,37.926,52.98,36.652z M45.887,52.641V37.54h3.21v0.076c-0.018,0.087-0.027,0.177-0.027,0.269v14.756H45.887z
		 M51.725,49.75v-9.318c1.315,0.59,2.42,1.88,2.42,4.658C54.145,47.869,53.04,49.158,51.725,49.75z"/>
</g>
</svg>
